<svg width="20" height="20" viewBox="0 0 20 20" fill="none" xmlns="http://www.w3.org/2000/svg">
<path opacity="0.2" d="M19 10C19 11.78 18.4722 13.5201 17.4832 15.0001C16.4943 16.4802 15.0887 17.6337 13.4442 18.3149C11.7996 18.9961 9.99002 19.1743 8.24419 18.8271C6.49836 18.4798 4.89472 17.6226 3.63604 16.364C2.37737 15.1053 1.5202 13.5016 1.17294 11.7558C0.82567 10.01 1.0039 8.20038 1.68509 6.55585C2.36628 4.91131 3.51983 3.50571 4.99987 2.51677C6.47991 1.52784 8.21997 1 10 1C12.387 1 14.6761 1.94821 16.364 3.63604C18.0518 5.32387 19 7.61305 19 10Z" fill="#3EC2CE"/>
<path d="M10 0.25C7.41414 0.25 4.93419 1.27723 3.10571 3.10571C1.27723 4.93419 0.25 7.41414 0.25 10C0.25 12.5859 1.27723 15.0658 3.10571 16.8943C4.93419 18.7228 7.41414 19.75 10 19.75C12.0166 19.75 14.1344 19.1425 15.6653 18.1253C15.7474 18.0708 15.8179 18.0006 15.8728 17.9188C15.9278 17.837 15.966 17.7452 15.9855 17.6486C16.005 17.552 16.0052 17.4526 15.9862 17.3559C15.9672 17.2592 15.9294 17.1672 15.8748 17.0852C15.8203 17.0031 15.7501 16.9326 15.6683 16.8777C15.5866 16.8227 15.4947 16.7844 15.3982 16.765C15.3016 16.7455 15.2021 16.7453 15.1054 16.7643C15.0087 16.7832 14.9167 16.8211 14.8347 16.8756C13.5625 17.7231 11.7072 18.25 10 18.25C8.3683 18.25 6.77325 17.7661 5.41655 16.8596C4.05984 15.9531 3.00242 14.6646 2.37799 13.1571C1.75357 11.6496 1.59019 9.99085 1.90852 8.39051C2.22685 6.79016 3.01259 5.32015 4.16637 4.16637C5.32015 3.01259 6.79016 2.22685 8.39051 1.90852C9.99085 1.59019 11.6496 1.75357 13.1571 2.37799C14.6646 3.00242 15.9531 4.05984 16.8596 5.41655C17.7661 6.77325 18.25 8.3683 18.25 10C18.25 12.4797 17.23 13 16.375 13C15.52 13 14.5 12.4797 14.5 10V6.25C14.5 6.05109 14.421 5.86032 14.2803 5.71967C14.1397 5.57902 13.9489 5.5 13.75 5.5C13.5511 5.5 13.3603 5.57902 13.2197 5.71967C13.079 5.86032 13 6.05109 13 6.25V6.64938C12.327 6.04593 11.4878 5.65918 10.5918 5.53951C9.69576 5.41983 8.78449 5.57278 7.97666 5.97842C7.16883 6.38406 6.50189 7.0236 6.06273 7.81371C5.62357 8.60382 5.43255 9.50788 5.51455 10.4081C5.59656 11.3083 5.94778 12.163 6.52247 12.8608C7.09716 13.5585 7.86867 14.067 8.7365 14.32C9.60433 14.573 10.5282 14.5588 11.3879 14.2792C12.2475 13.9996 13.003 13.4676 13.5559 12.7525C14.1184 13.8775 15.0887 14.5 16.375 14.5C18.4881 14.5 19.75 12.8181 19.75 10C19.7473 7.41498 18.7192 4.93661 16.8913 3.10872C15.0634 1.28084 12.585 0.25273 10 0.25ZM10 13C9.40666 13 8.82664 12.8241 8.33329 12.4944C7.83994 12.1648 7.45542 11.6962 7.22836 11.148C7.0013 10.5999 6.94189 9.99667 7.05764 9.41473C7.1734 8.83279 7.45912 8.29824 7.87868 7.87868C8.29824 7.45912 8.83279 7.1734 9.41473 7.05764C9.99667 6.94189 10.5999 7.0013 11.148 7.22836C11.6962 7.45542 12.1648 7.83994 12.4944 8.33329C12.8241 8.82664 13 9.40666 13 10C13 10.7956 12.6839 11.5587 12.1213 12.1213C11.5587 12.6839 10.7956 13 10 13Z" fill="#3EC2CE"/>
</svg>
