<svg width="22" height="19" viewBox="0 0 22 19" fill="none" xmlns="http://www.w3.org/2000/svg">
<path d="M20.8156 1.7325C20.4688 1.28437 19.7975 0.75 18.5938 0.75C17.0141 0.75 14.9881 1.8075 13.1741 3.5775C12.6554 4.08022 12.1791 4.62488 11.75 5.20594V2.25C11.75 2.05109 11.671 1.86032 11.5303 1.71967C11.3897 1.57902 11.1989 1.5 11 1.5C10.8011 1.5 10.6103 1.57902 10.4697 1.71967C10.329 1.86032 10.25 2.05109 10.25 2.25V5.20594C9.82211 4.62503 9.34707 4.08037 8.8297 3.5775C7.0147 1.8075 4.98876 0.75 3.40626 0.75C2.20251 0.75 1.53126 1.28437 1.18439 1.7325C0.545012 2.55469 0.0425118 3.99 1.1647 8.4075C1.73189 10.6416 2.99376 11.5012 4.03626 11.8219C3.46775 12.745 3.28552 13.8549 3.529 14.9113C3.77249 15.9678 4.42211 16.886 5.33733 17.4672C6.25255 18.0483 7.35979 18.2459 8.41951 18.017C9.47924 17.7881 10.4063 17.1512 11 16.2441C11.5938 17.1512 12.5208 17.7881 13.5805 18.017C14.6402 18.2459 15.7475 18.0483 16.6627 17.4672C17.5779 16.886 18.2275 15.9678 18.471 14.9113C18.7145 13.8549 18.5323 12.745 17.9638 11.8219C19.0063 11.5031 20.2672 10.6416 20.8353 8.4075C21.4653 5.92875 21.9547 3.19687 20.8156 1.7325ZM7.62501 16.5C6.95947 16.4883 6.32298 16.2253 5.84333 15.7638C5.36368 15.3022 5.07638 14.6763 5.03912 14.0117C5.00185 13.3471 5.21738 12.693 5.64243 12.1808C6.06747 11.6685 6.67057 11.336 7.33064 11.25C7.42991 11.2409 7.52638 11.2121 7.6144 11.1653C7.70242 11.1185 7.78023 11.0546 7.84328 10.9774C7.90632 10.9002 7.95334 10.8112 7.98158 10.7156C8.00982 10.62 8.01871 10.5197 8.00775 10.4206C7.99678 10.3215 7.96617 10.2256 7.9177 10.1385C7.86924 10.0514 7.80389 9.9748 7.72548 9.91323C7.64707 9.85167 7.55718 9.80635 7.46105 9.77993C7.36492 9.75351 7.2645 9.74653 7.16564 9.75937C6.46452 9.83457 5.79473 10.0897 5.22126 10.5C4.43095 10.5084 3.15876 10.1653 2.61876 8.03812C2.34876 6.97406 1.53126 3.73687 2.36939 2.65312C2.50345 2.48062 2.75845 2.25 3.40626 2.25C5.96282 2.25 10.25 6.4575 10.25 8.96906V13.875C10.25 14.5712 9.97345 15.2389 9.48117 15.7312C8.98888 16.2234 8.3212 16.5 7.62501 16.5ZM19.3813 8.03812C18.8403 10.1653 17.5691 10.5075 16.7778 10.5C16.2049 10.0879 15.535 9.8311 14.8334 9.75469C14.7346 9.74184 14.6342 9.74883 14.538 9.77525C14.4419 9.80166 14.352 9.84698 14.2736 9.90855C14.1952 9.97011 14.1299 10.0467 14.0814 10.1338C14.0329 10.2209 14.0023 10.3168 13.9913 10.4159C13.9804 10.515 13.9893 10.6153 14.0175 10.7109C14.0457 10.8065 14.0928 10.8955 14.1558 10.9727C14.2189 11.05 14.2967 11.1138 14.3847 11.1606C14.4727 11.2074 14.5692 11.2362 14.6684 11.2453C15.1742 11.3 15.6534 11.4999 16.0481 11.8208C16.4428 12.1418 16.7361 12.5702 16.8927 13.0542C17.0493 13.5383 17.0624 14.0573 16.9305 14.5486C16.7986 15.0399 16.5273 15.4826 16.1494 15.8231C15.7714 16.1637 15.303 16.3876 14.8006 16.4677C14.2983 16.5479 13.7834 16.481 13.3183 16.275C12.8531 16.069 12.4575 15.7328 12.1792 15.3069C11.9009 14.881 11.7519 14.3837 11.75 13.875V8.96906C11.75 6.4575 16.0334 2.25 18.5938 2.25C19.2453 2.25 19.4994 2.48062 19.6344 2.65312C20.4734 3.73687 19.6513 6.97406 19.3813 8.03812Z" fill="#61B6BF"/>
</svg>
